<svg width="40" height="40" viewBox="0 0 40 40" fill="none" xmlns="http://www.w3.org/2000/svg">
<g id="Layer_2">
<path id="Vector" d="M33.75 1.25H6.25C5.59334 1.24981 4.94308 1.37902 4.33636 1.63022C3.72965 1.88143 3.17838 2.24972 2.71405 2.71405C2.24972 3.17838 1.88143 3.72965 1.63022 4.33636C1.37902 4.94308 1.24981 5.59334 1.25 6.25V33.75C1.24982 34.4067 1.37903 35.0569 1.63024 35.6636C1.88145 36.2703 2.24974 36.8216 2.71407 37.2859C3.1784 37.7503 3.72966 38.1186 4.33637 38.3698C4.94308 38.621 5.59334 38.7502 6.25 38.75H33.75C34.4067 38.7502 35.0569 38.621 35.6636 38.3698C36.2703 38.1186 36.8216 37.7503 37.2859 37.2859C37.7503 36.8216 38.1186 36.2703 38.3698 35.6636C38.621 35.0569 38.7502 34.4067 38.75 33.75V6.25C38.7502 5.59334 38.621 4.94308 38.3698 4.33636C38.1186 3.72965 37.7503 3.17838 37.2859 2.71405C36.8216 2.24972 36.2703 1.88143 35.6636 1.63022C35.0569 1.37902 34.4067 1.24981 33.75 1.25ZM33.325 30.9125H31.8C31.5306 31.8087 30.9797 32.5942 30.2288 33.1526C29.4779 33.711 28.567 34.0125 27.6312 34.0125C26.6955 34.0125 25.7846 33.711 25.0337 33.1526C24.2828 32.5942 23.7319 31.8087 23.4625 30.9125H6.675C6.34348 30.9125 6.02554 30.7808 5.79112 30.5464C5.5567 30.312 5.425 29.994 5.425 29.6625C5.425 29.331 5.5567 29.013 5.79112 28.7786C6.02554 28.5442 6.34348 28.4125 6.675 28.4125H23.4625C23.7319 27.5163 24.2828 26.7308 25.0337 26.1724C25.7846 25.614 26.6955 25.3125 27.6312 25.3125C28.567 25.3125 29.4779 25.614 30.2288 26.1724C30.9797 26.7308 31.5306 27.5163 31.8 28.4125H33.325C33.6565 28.4125 33.9745 28.5442 34.2089 28.7786C34.4433 29.013 34.575 29.331 34.575 29.6625C34.575 29.994 34.4433 30.312 34.2089 30.5464C33.9745 30.7808 33.6565 30.9125 33.325 30.9125ZM33.325 21.25H24.1625C23.8946 22.1458 23.3449 22.9313 22.595 23.4898C21.8451 24.0483 20.935 24.3499 20 24.3499C19.065 24.3499 18.1549 24.0483 17.405 23.4898C16.6551 22.9313 16.1054 22.1458 15.8375 21.25H6.675C6.34348 21.25 6.02554 21.1183 5.79112 20.8839C5.5567 20.6495 5.425 20.3315 5.425 20C5.425 19.6685 5.5567 19.3505 5.79112 19.1161C6.02554 18.8817 6.34348 18.75 6.675 18.75H15.8375C16.1054 17.8542 16.6551 17.0687 17.405 16.5102C18.1549 15.9517 19.065 15.65 20 15.65C20.935 15.65 21.8451 15.9517 22.595 16.5102C23.3449 17.0687 23.8946 17.8542 24.1625 18.75H33.325C33.6565 18.75 33.9745 18.8817 34.2089 19.1161C34.4433 19.3505 34.575 19.6685 34.575 20C34.575 20.3315 34.4433 20.6495 34.2089 20.8839C33.9745 21.1183 33.6565 21.25 33.325 21.25ZM33.325 11.5875H16.5375C16.2681 12.4837 15.7172 13.2692 14.9663 13.8276C14.2154 14.386 13.3045 14.6875 12.3688 14.6875C11.433 14.6875 10.5221 14.386 9.77122 13.8276C9.02032 13.2692 8.46935 12.4837 8.2 11.5875H6.675C6.34348 11.5875 6.02554 11.4558 5.79112 11.2214C5.5567 10.987 5.425 10.669 5.425 10.3375C5.425 10.006 5.5567 9.68804 5.79112 9.45362C6.02554 9.2192 6.34348 9.0875 6.675 9.0875H8.2C8.46933 8.19132 9.02029 7.40578 9.7712 6.84737C10.5221 6.28896 11.433 5.98739 12.3688 5.98739C13.3045 5.98739 14.2154 6.28896 14.9663 6.84737C15.7172 7.40578 16.2682 8.19132 16.5375 9.0875H33.325C33.6565 9.0875 33.9745 9.2192 34.2089 9.45362C34.4433 9.68804 34.575 10.006 34.575 10.3375C34.575 10.669 34.4433 10.987 34.2089 11.2214C33.9745 11.4558 33.6565 11.5875 33.325 11.5875Z" fill="url(#paint0_linear_147_12178)"/>
<path id="Vector_2" d="M12.3624 8.48745C11.9971 8.48992 11.6406 8.60051 11.338 8.80529C11.0354 9.01006 10.8003 9.29985 10.6622 9.6381C10.5241 9.97635 10.4892 10.3479 10.562 10.706C10.6348 11.064 10.8119 11.3925 11.0712 11.6499C11.3304 11.9074 11.66 12.0824 12.0186 12.1528C12.3771 12.2231 12.7484 12.1858 13.0857 12.0454C13.423 11.905 13.7112 11.6679 13.914 11.3639C14.1167 11.06 14.2249 10.7028 14.2249 10.3374C14.2244 10.0936 14.1758 9.85223 14.0818 9.6272C13.9879 9.40216 13.8505 9.19787 13.6775 9.02602C13.5045 8.85417 13.2993 8.71814 13.0736 8.62572C12.8479 8.5333 12.6063 8.48631 12.3624 8.48745Z" fill="url(#paint1_linear_147_12178)"/>
<path id="Vector_3" d="M19.9999 18.15C19.634 18.15 19.2763 18.2585 18.9721 18.4618C18.6679 18.6651 18.4307 18.954 18.2907 19.2921C18.1507 19.6301 18.1141 20.0021 18.1855 20.3609C18.2568 20.7198 18.433 21.0494 18.6918 21.3082C18.9505 21.5669 19.2801 21.7431 19.639 21.8145C19.9979 21.8859 20.3698 21.8492 20.7079 21.7092C21.0459 21.5692 21.3348 21.3321 21.5381 21.0278C21.7414 20.7236 21.8499 20.3659 21.8499 20C21.8505 19.7569 21.803 19.5161 21.7102 19.2914C21.6174 19.0667 21.4812 18.8626 21.3093 18.6907C21.1374 18.5188 20.9332 18.3825 20.7085 18.2897C20.4838 18.197 20.243 18.1495 19.9999 18.15Z" fill="url(#paint2_linear_147_12178)"/>
<path id="Vector_4" d="M27.6376 27.8125C27.2717 27.8125 26.914 27.921 26.6098 28.1243C26.3056 28.3276 26.0684 28.6165 25.9284 28.9545C25.7884 29.2926 25.7518 29.6646 25.8231 30.0234C25.8945 30.3823 26.0707 30.7119 26.3295 30.9706C26.5882 31.2294 26.9178 31.4056 27.2767 31.477C27.6355 31.5483 28.0075 31.5117 28.3456 31.3717C28.6836 31.2317 28.9725 30.9945 29.1758 30.6903C29.3791 30.3861 29.4876 30.0284 29.4876 29.6625C29.4859 29.1724 29.2904 28.7028 28.9439 28.3562C28.5973 28.0097 28.1277 27.8142 27.6376 27.8125Z" fill="url(#paint3_linear_147_12178)"/>
</g>
<defs>
<linearGradient id="paint0_linear_147_12178" x1="38.75" y1="20" x2="1.25" y2="20" gradientUnits="userSpaceOnUse">
<stop stop-color="#FE604D"/>
<stop offset="0.9999" stop-color="#FF9E04"/>
</linearGradient>
<linearGradient id="paint1_linear_147_12178" x1="14.2249" y1="10.3374" x2="10.5249" y2="10.3374" gradientUnits="userSpaceOnUse">
<stop stop-color="#FE604D"/>
<stop offset="0.9999" stop-color="#FF9E04"/>
</linearGradient>
<linearGradient id="paint2_linear_147_12178" x1="21.8499" y1="20" x2="18.1499" y2="20" gradientUnits="userSpaceOnUse">
<stop stop-color="#FE604D"/>
<stop offset="0.9999" stop-color="#FF9E04"/>
</linearGradient>
<linearGradient id="paint3_linear_147_12178" x1="29.4876" y1="29.6625" x2="25.7876" y2="29.6625" gradientUnits="userSpaceOnUse">
<stop stop-color="#FE604D"/>
<stop offset="0.9999" stop-color="#FF9E04"/>
</linearGradient>
</defs>
</svg>
