<svg width="40" height="40" viewBox="0 0 40 40" fill="none" xmlns="http://www.w3.org/2000/svg">
<g id="Icons">
<path id="Vector" d="M28.75 35C27.375 35 26.125 34.125 25.625 32.75C25.625 32.625 25.625 32.5 25.5 32.5H14.375C14.375 32.625 14.375 32.75 14.25 32.75C13.875 34.125 12.625 35 11.25 35C10.5 35 10 35.5 10 36.25C10 37 10.5 37.5 11.25 37.5H28.75C29.5 37.5 30 37 30 36.25C30 35.5 29.5 35 28.75 35Z" fill="url(#paint0_linear_147_12197)"/>
<path id="Vector_2" d="M33.75 3.75H6.25C4.125 3.75 2.5 5.375 2.5 7.5V26.25C2.5 28.375 4.125 30 6.25 30H14.875H25H33.75C35.875 30 37.5 28.375 37.5 26.25V7.5C37.5 5.375 35.875 3.75 33.75 3.75ZM25 26.25C25 26.75 24.75 27.125 24.375 27.375C24.125 27.5 24 27.5 23.75 27.5C23.5 27.5 23.25 27.375 23 27.25L20 25.25L17 27.25C16.625 27.5 16.125 27.5 15.75 27.25C15.25 27.125 15 26.75 15 26.25V20.875C16.375 21.875 18.125 22.5 20 22.5C21.875 22.5 23.625 21.875 25 20.875V26.25ZM20 20C16.5 20 13.75 17.25 13.75 13.75C13.75 10.25 16.5 7.5 20 7.5C23.5 7.5 26.25 10.25 26.25 13.75C26.25 17.25 23.5 20 20 20Z" fill="url(#paint1_linear_147_12197)"/>
</g>
<defs>
<linearGradient id="paint0_linear_147_12197" x1="30" y1="35" x2="10" y2="35" gradientUnits="userSpaceOnUse">
<stop stop-color="#FE604D"/>
<stop offset="0.9999" stop-color="#FF9E04"/>
</linearGradient>
<linearGradient id="paint1_linear_147_12197" x1="37.5" y1="16.875" x2="2.5" y2="16.875" gradientUnits="userSpaceOnUse">
<stop stop-color="#FE604D"/>
<stop offset="0.9999" stop-color="#FF9E04"/>
</linearGradient>
</defs>
</svg>
