<svg width="40" height="40" viewBox="0 0 40 40" fill="none" xmlns="http://www.w3.org/2000/svg">
<g id="Frame">
<g id="_x30_6">
<path id="Vector" d="M31.25 18.75H27.0447C26.1981 18.75 25.4028 19.0796 24.8041 19.6783L23.4283 21.0541C23.302 21.1804 23.1342 21.25 22.9553 21.25H17.0447C16.8658 21.25 16.698 21.1804 16.5717 21.0541L15.1959 19.6783C14.5972 19.0796 13.8019 18.75 12.9553 18.75H8.75C5.06653 18.75 2.5 24.0204 2.5 28.75C2.5 33.6566 5.24536 37.5 8.75 37.5C11.3074 37.5 13.5266 34.9792 14.1461 32.5C14.4476 31.3 15.5219 30 16.7584 30H23.2416C24.4781 30 25.5524 31.3013 25.8533 32.5C26.4734 34.9805 28.6926 37.5 31.25 37.5C34.7546 37.5 37.5 33.6566 37.5 28.75C37.5 24.0204 34.9335 18.75 31.25 18.75ZM11.875 26.25H10V28.125C10 28.4705 9.72046 28.75 9.375 28.75C9.02954 28.75 8.75 28.4705 8.75 28.125V26.25H6.875C6.52954 26.25 6.25 25.9705 6.25 25.625C6.25 25.2795 6.52954 25 6.875 25H8.75V23.125C8.75 22.7795 9.02954 22.5 9.375 22.5C9.72046 22.5 10 22.7795 10 23.125V25H11.875C12.2205 25 12.5 25.2795 12.5 25.625C12.5 25.9705 12.2205 26.25 11.875 26.25ZM30 21.25C30.6893 21.25 31.25 21.8107 31.25 22.5C31.25 23.1893 30.6893 23.75 30 23.75C29.3107 23.75 28.75 23.1893 28.75 22.5C28.75 21.8107 29.3107 21.25 30 21.25ZM27.5 26.25C26.8108 26.25 26.25 25.6893 26.25 25C26.25 24.3107 26.8108 23.75 27.5 23.75C28.1893 23.75 28.75 24.3107 28.75 25C28.75 25.6893 28.1893 26.25 27.5 26.25ZM30 28.75C29.3107 28.75 28.75 28.1893 28.75 27.5C28.75 26.8107 29.3107 26.25 30 26.25C30.6893 26.25 31.25 26.8107 31.25 27.5C31.25 28.1893 30.6893 28.75 30 28.75ZM32.5 26.25C31.8107 26.25 31.25 25.6893 31.25 25C31.25 24.3107 31.8107 23.75 32.5 23.75C33.1893 23.75 33.75 24.3107 33.75 25C33.75 25.6893 33.1893 26.25 32.5 26.25Z" fill="url(#paint0_linear_147_12204)"/>
<path id="Vector_2" d="M27.8555 11.2668L20.7912 13.6218C20.5337 13.7073 20.2688 13.75 20.0002 13.75C19.7316 13.75 19.4668 13.7073 19.211 13.6224L12.1448 11.267L11.2874 14.6966C11.1294 15.3302 11.4852 15.979 12.1047 16.1859L19.6047 18.6859C19.7335 18.7286 19.8665 18.75 20.0002 18.75C20.1339 18.75 20.2669 18.7286 20.3957 18.6859L27.8957 16.1859C28.5152 15.979 28.8711 15.3302 28.713 14.6966L27.8555 11.2668Z" fill="url(#paint1_linear_147_12204)"/>
<path id="Vector_3" d="M31.6455 6.31409L20.3955 2.56409C20.1379 2.47864 19.8621 2.47864 19.6045 2.56409L8.35449 6.31409C7.84424 6.48438 7.5 6.96167 7.5 7.5C7.5 8.03833 7.84424 8.51562 8.35449 8.68591L19.6045 12.4359C19.7333 12.4786 19.8663 12.5 20 12.5C20.1337 12.5 20.2667 12.4786 20.3955 12.4359L30 9.23439V16.25C30 16.9403 30.5597 17.5 31.25 17.5C31.9403 17.5 32.5 16.9403 32.5 16.25V7.5C32.5 6.96167 32.1558 6.48438 31.6455 6.31409Z" fill="url(#paint2_linear_147_12204)"/>
</g>
</g>
<defs>
<linearGradient id="paint0_linear_147_12204" x1="37.5" y1="28.125" x2="2.5" y2="28.125" gradientUnits="userSpaceOnUse">
<stop stop-color="#FE604D"/>
<stop offset="0.9999" stop-color="#FF9E04"/>
</linearGradient>
<linearGradient id="paint1_linear_147_12204" x1="28.7504" y1="15.0084" x2="11.25" y2="15.0084" gradientUnits="userSpaceOnUse">
<stop stop-color="#FE604D"/>
<stop offset="0.9999" stop-color="#FF9E04"/>
</linearGradient>
<linearGradient id="paint2_linear_147_12204" x1="32.5" y1="10" x2="7.5" y2="10" gradientUnits="userSpaceOnUse">
<stop stop-color="#FE604D"/>
<stop offset="0.9999" stop-color="#FF9E04"/>
</linearGradient>
</defs>
</svg>
