<svg width="25" height="24" viewBox="0 0 25 24" fill="none" xmlns="http://www.w3.org/2000/svg">
<g id="Layer_1" clip-path="url(#clip0_147_11960)">
<g id="Group">
<path id="Vector" d="M16.9458 19C16.5248 18.9986 16.1088 18.9089 15.7247 18.7367C15.3405 18.5644 14.9968 18.3134 14.7158 18H11.1758C10.8947 18.3153 10.55 18.5675 10.1644 18.7398C9.77875 18.9121 9.36095 19.0008 8.93855 18.9998C8.51615 18.9989 8.09876 18.9084 7.71389 18.7343C7.32903 18.5603 6.98544 18.3066 6.7058 17.99C5.38129 17.9627 4.08622 17.5942 2.9458 16.92V19C2.9458 19.6566 3.07513 20.3068 3.3264 20.9134C3.57768 21.52 3.94597 22.0712 4.41027 22.5355C5.34795 23.4732 6.61972 24 7.9458 24H17.9458C18.6024 24 19.2526 23.8707 19.8592 23.6194C20.4658 23.3681 21.017 22.9998 21.4813 22.5355C21.9456 22.0712 22.3139 21.52 22.5652 20.9134C22.8165 20.3068 22.9458 19.6566 22.9458 19V16.93C21.8028 17.5968 20.5088 17.9616 19.1858 17.99C18.9054 18.3076 18.5607 18.5619 18.1745 18.7361C17.7883 18.9102 17.3695 19.0002 16.9458 19Z" fill="url(#paint0_linear_147_11960)"/>
<path id="Vector_2" d="M21.9458 4H18.9458V3C18.9434 2.20508 18.6266 1.4434 18.0645 0.881302C17.5024 0.319207 16.7407 0.00237409 15.9458 0L9.9458 0C9.15088 0.00237409 8.3892 0.319207 7.8271 0.881302C7.26501 1.4434 6.94817 2.20508 6.9458 3V4H3.9458C3.15088 4.00237 2.3892 4.31921 1.8271 4.8813C1.26501 5.4434 0.948175 6.20508 0.945801 7L0.945801 10C0.950023 10.9307 1.16875 11.8479 1.58498 12.6804C2.00122 13.5129 2.60376 14.2382 3.3458 14.8C4.1067 15.3804 5.00032 15.7619 5.9458 15.91V14C5.9458 13.2044 6.26187 12.4413 6.82448 11.8787C7.38709 11.3161 8.15015 11 8.9458 11C9.74145 11 10.5045 11.3161 11.0671 11.8787C11.6297 12.4413 11.9458 13.2044 11.9458 14V16H13.9458V14C13.9482 13.2051 14.265 12.4434 14.8271 11.8813C15.3892 11.3192 16.1509 11.0024 16.9458 11C17.7372 11.0136 18.4924 11.3341 19.052 11.8938C19.6117 12.4534 19.9322 13.2086 19.9458 14V15.91C20.8913 15.7619 21.7849 15.3804 22.5458 14.8C23.286 14.2365 23.8873 13.5109 24.3033 12.6788C24.7194 11.8467 24.9392 10.9303 24.9458 10V7C24.9434 6.20508 24.6266 5.4434 24.0645 4.8813C23.5024 4.31921 22.7407 4.00237 21.9458 4ZM16.9458 4H8.9458V3C8.9458 2.73478 9.05116 2.48043 9.23869 2.29289C9.42623 2.10536 9.68058 2 9.9458 2H15.9458C16.211 2 16.4654 2.10536 16.6529 2.29289C16.8404 2.48043 16.9458 2.73478 16.9458 3V4Z" fill="url(#paint1_linear_147_11960)"/>
<path id="Vector_3" d="M17.9458 16V14C17.9458 13.7348 17.8404 13.4804 17.6529 13.2929C17.4654 13.1054 17.211 13 16.9458 13C16.6806 13 16.4262 13.1054 16.2387 13.2929C16.0512 13.4804 15.9458 13.7348 15.9458 14V16C15.9458 16.2652 16.0512 16.5196 16.2387 16.7071C16.4262 16.8946 16.6806 17 16.9458 17C17.211 17 17.4654 16.8946 17.6529 16.7071C17.8404 16.5196 17.9458 16.2652 17.9458 16Z" fill="url(#paint2_linear_147_11960)"/>
<path id="Vector_4" d="M9.9458 16V14C9.9458 13.7348 9.84044 13.4804 9.65291 13.2929C9.46537 13.1054 9.21102 13 8.9458 13C8.68058 13 8.42623 13.1054 8.23869 13.2929C8.05116 13.4804 7.9458 13.7348 7.9458 14V16C7.9458 16.2652 8.05116 16.5196 8.23869 16.7071C8.42623 16.8946 8.68058 17 8.9458 17C9.21102 17 9.46537 16.8946 9.65291 16.7071C9.84044 16.5196 9.9458 16.2652 9.9458 16Z" fill="url(#paint3_linear_147_11960)"/>
</g>
</g>
<defs>
<linearGradient id="paint0_linear_147_11960" x1="22.9458" y1="20.46" x2="2.9458" y2="20.46" gradientUnits="userSpaceOnUse">
<stop stop-color="#FE604D"/>
<stop offset="0.9999" stop-color="#FF9E04"/>
</linearGradient>
<linearGradient id="paint1_linear_147_11960" x1="24.9458" y1="8" x2="0.945801" y2="8" gradientUnits="userSpaceOnUse">
<stop stop-color="#FE604D"/>
<stop offset="0.9999" stop-color="#FF9E04"/>
</linearGradient>
<linearGradient id="paint2_linear_147_11960" x1="17.9458" y1="15" x2="15.9458" y2="15" gradientUnits="userSpaceOnUse">
<stop stop-color="#FE604D"/>
<stop offset="0.9999" stop-color="#FF9E04"/>
</linearGradient>
<linearGradient id="paint3_linear_147_11960" x1="9.9458" y1="15" x2="7.9458" y2="15" gradientUnits="userSpaceOnUse">
<stop stop-color="#FE604D"/>
<stop offset="0.9999" stop-color="#FF9E04"/>
</linearGradient>
<clipPath id="clip0_147_11960">
<rect width="24" height="24" fill="white" transform="translate(0.945801)"/>
</clipPath>
</defs>
</svg>
