<svg width="25" height="24" viewBox="0 0 25 24" fill="none" xmlns="http://www.w3.org/2000/svg">
<g id="Layer_1" clip-path="url(#clip0_147_11949)">
<g id="Group">
<g id="Group_2">
<path id="Vector" d="M17.8436 21.551H16.7698L16.4349 20.5714H9.45649L9.12157 21.551H8.04766C7.64191 21.551 7.31299 21.88 7.31299 22.2857C7.31299 22.6914 7.64196 23.0203 8.04766 23.0203C8.4626 23.0203 17.4337 23.0203 17.8436 23.0203C18.2493 23.0203 18.5783 22.6914 18.5783 22.2857C18.5783 21.88 18.2493 21.551 17.8436 21.551Z" fill="url(#paint0_linear_147_11949)"/>
</g>
</g>
<g id="Group_3">
<g id="Group_4">
<path id="Vector_2" d="M22.7417 0.979614H3.14986C1.93454 0.979614 0.945801 1.96835 0.945801 3.18368V13.7143H24.9458V3.18368C24.9458 1.96835 23.9571 0.979614 22.7417 0.979614ZM14.1395 8.81636H8.20425C7.7985 8.81636 7.46958 8.4874 7.46958 8.08165C7.46958 7.6759 7.79855 7.34697 8.20425 7.34697H14.1395C14.5453 7.34697 14.8742 7.67594 14.8742 8.08165C14.8742 8.4874 14.5452 8.81636 14.1395 8.81636ZM17.6873 8.81636H16.7011C16.2953 8.81636 15.9663 8.4874 15.9663 8.08165C15.9663 7.6759 16.2953 7.34697 16.7011 7.34697H17.6873C18.0931 7.34697 18.422 7.67594 18.422 8.08165C18.4221 8.4874 18.0931 8.81636 17.6873 8.81636Z" fill="url(#paint1_linear_147_11949)"/>
</g>
</g>
<g id="Group_5">
<g id="Group_6">
<path id="Vector_3" d="M0.945801 15.1837V16.8979C0.945801 18.1132 1.93454 19.102 3.14986 19.102H22.7417C23.9571 19.102 24.9458 18.1132 24.9458 16.8979V15.1837H0.945801ZM12.9458 17.8776C12.5401 17.8776 12.2111 17.5486 12.2111 17.1429C12.2111 16.7372 12.5401 16.4082 12.9458 16.4082C13.3516 16.4082 13.6805 16.7372 13.6805 17.1429C13.6805 17.5486 13.3516 17.8776 12.9458 17.8776Z" fill="url(#paint2_linear_147_11949)"/>
</g>
</g>
</g>
<defs>
<linearGradient id="paint0_linear_147_11949" x1="18.5783" y1="21.7959" x2="7.31299" y2="21.7959" gradientUnits="userSpaceOnUse">
<stop stop-color="#FE604D"/>
<stop offset="0.9999" stop-color="#FF9E04"/>
</linearGradient>
<linearGradient id="paint1_linear_147_11949" x1="24.9458" y1="7.34695" x2="0.945801" y2="7.34695" gradientUnits="userSpaceOnUse">
<stop stop-color="#FE604D"/>
<stop offset="0.9999" stop-color="#FF9E04"/>
</linearGradient>
<linearGradient id="paint2_linear_147_11949" x1="24.9458" y1="17.1428" x2="0.945801" y2="17.1428" gradientUnits="userSpaceOnUse">
<stop stop-color="#FE604D"/>
<stop offset="0.9999" stop-color="#FF9E04"/>
</linearGradient>
<clipPath id="clip0_147_11949">
<rect width="24" height="24" fill="white" transform="translate(0.945801)"/>
</clipPath>
</defs>
</svg>
