<svg width="25" height="24" viewBox="0 0 25 24" fill="none" xmlns="http://www.w3.org/2000/svg">
<g id="bold" clip-path="url(#clip0_147_11941)">
<path id="Vector" d="M24.4559 9.83255e-06C19.7659 -0.0799902 14.4259 2.37001 11.0459 6.17001C7.81587 6.23001 4.66587 7.55001 2.34587 9.87001C2.21587 10 2.16587 10.2 2.22587 10.38C2.28587 10.56 2.43587 10.69 2.62587 10.72L6.48587 11.27L6.00587 11.81C5.82587 12 5.83587 12.31 6.02587 12.49L10.6859 17.15C10.4159 16.62 10.3659 16.01 10.5659 15.42C10.8559 14.55 11.6459 13.95 12.5659 13.9L15.3159 13.74L16.3359 10.98C16.6559 10.09 17.5059 9.50001 18.4459 9.50001C19.3859 9.50001 20.2359 10.09 20.5559 10.98L20.8359 11.73C23.4459 8.47001 25.0259 4.26001 24.9459 0.49001C24.9359 0.22001 24.7259 0.0100098 24.4559 9.83255e-06ZM19.8459 8.64001C19.3559 9.12001 18.7159 9.37001 18.0759 9.37001C17.4359 9.37001 16.7959 9.12001 16.3059 8.64001C15.3359 7.66001 15.3359 6.07001 16.3059 5.10001C17.2859 4.12001 18.8759 4.12001 19.8459 5.10001C20.8159 6.07001 20.8159 7.66001 19.8459 8.64001Z" fill="url(#paint0_linear_147_11941)"/>
<path id="Vector_2" d="M3.66986 16.905C2.59986 17.975 1.13086 22.809 0.966858 23.356C0.913858 23.532 0.962858 23.723 1.09186 23.853C1.18786 23.949 1.31486 24 1.44586 24C1.49386 24 1.54186 23.993 1.58986 23.979C2.13686 23.815 6.97086 22.346 8.04086 21.276C9.24586 20.071 9.24586 18.11 8.04086 16.905C6.83486 15.7 4.87486 15.701 3.66986 16.905Z" fill="url(#paint1_linear_147_11941)"/>
<path id="Vector_3" d="M21.9996 24C21.8526 24 21.7046 23.957 21.5776 23.87L18.4456 21.739L15.3136 23.87C15.0566 24.044 14.7166 24.043 14.4616 23.864C14.2056 23.685 14.0876 23.367 14.1646 23.066L15.1396 19.216L12.2076 16.713C11.9756 16.514 11.8866 16.193 11.9836 15.903C12.0816 15.613 12.3456 15.411 12.6526 15.394L16.3866 15.183L17.7406 11.493C17.8496 11.196 18.1316 11 18.4456 11C18.7596 11 19.0416 11.196 19.1496 11.492L20.5036 15.182L24.2376 15.393C24.5446 15.411 24.8086 15.612 24.9066 15.902C25.0046 16.193 24.9156 16.513 24.6826 16.712L21.7506 19.215L22.7256 23.065C22.8026 23.367 22.6846 23.685 22.4286 23.863C22.2996 23.955 22.1496 24 21.9996 24Z" fill="url(#paint2_linear_147_11941)"/>
</g>
<defs>
<linearGradient id="paint0_linear_147_11941" x1="24.9488" y1="8.57405" x2="2.20068" y2="8.57405" gradientUnits="userSpaceOnUse">
<stop stop-color="#FE604D"/>
<stop offset="0.9999" stop-color="#FF9E04"/>
</linearGradient>
<linearGradient id="paint1_linear_147_11941" x1="8.94461" y1="20.0008" x2="0.945801" y2="20.0008" gradientUnits="userSpaceOnUse">
<stop stop-color="#FE604D"/>
<stop offset="0.9999" stop-color="#FF9E04"/>
</linearGradient>
<linearGradient id="paint2_linear_147_11941" x1="24.9459" y1="17.5" x2="11.9448" y2="17.5" gradientUnits="userSpaceOnUse">
<stop stop-color="#FE604D"/>
<stop offset="0.9999" stop-color="#FF9E04"/>
</linearGradient>
<clipPath id="clip0_147_11941">
<rect width="24" height="24" fill="white" transform="translate(0.945801)"/>
</clipPath>
</defs>
</svg>
