<svg width="25" height="24" viewBox="0 0 25 24" fill="none" xmlns="http://www.w3.org/2000/svg">
<g id="bold" clip-path="url(#clip0_147_11946)">
<path id="Vector" d="M22.6958 17.9999C21.7193 17.9999 20.8943 18.6291 20.5838 19.4999H19.6958C19.2818 19.4999 18.9458 19.1631 18.9458 18.7499V14.9984C19.4746 14.7344 20.0026 14.4441 20.5298 14.1096C21.4163 13.5479 21.9458 12.5939 21.9458 11.5559V8.13139L22.1423 8.04064C22.9335 7.67239 23.4458 6.87139 23.4458 5.99839C23.4458 5.12539 22.9335 4.32439 22.1423 3.95614L14.2073 0.275137C13.4145 -0.0923633 12.4771 -0.0923633 11.6851 0.275137L3.7493 3.95614C2.95805 4.32439 2.4458 5.12539 2.4458 5.99839C2.4458 6.87139 2.95805 7.67239 3.7493 8.04064L3.9458 8.13139V11.5559C3.9458 12.5939 4.4753 13.5486 5.3618 14.1096C5.88905 14.4434 6.41705 14.7344 6.9458 14.9976V18.7499C6.9458 19.1631 6.6098 19.4999 6.1958 19.4999H5.3078C4.9973 18.6291 4.1723 17.9999 3.1958 17.9999C1.9553 17.9999 0.945801 19.0094 0.945801 20.2499C0.945801 21.4904 1.9553 22.4999 3.1958 22.4999C4.1723 22.4999 4.9973 21.8706 5.3078 20.9999H6.1958C7.4363 20.9999 8.4458 19.9904 8.4458 18.7499V15.6531C9.6938 16.1196 10.9448 16.3919 12.1958 16.4699V19.6379C11.3251 19.9484 10.6958 20.7734 10.6958 21.7499C10.6958 22.9904 11.7053 23.9999 12.9458 23.9999C14.1863 23.9999 15.1958 22.9904 15.1958 21.7499C15.1958 20.7734 14.5666 19.9484 13.6958 19.6379V16.4699C14.9468 16.3919 16.1978 16.1196 17.4458 15.6531V18.7499C17.4458 19.9904 18.4553 20.9999 19.6958 20.9999H20.5838C20.8943 21.8706 21.7193 22.4999 22.6958 22.4999C23.9363 22.4999 24.9458 21.4904 24.9458 20.2499C24.9458 19.0094 23.9363 17.9999 22.6958 17.9999ZM5.4458 11.5559V8.82739L11.6843 11.7216C12.0803 11.9054 12.5048 11.9991 12.9458 11.9991C13.3861 11.9991 13.8105 11.9054 14.2073 11.7216L20.4458 8.82739V11.5559C20.4458 12.0764 20.1773 12.5571 19.7273 12.8421C17.4593 14.2784 15.2221 14.9991 12.9848 15.0074C12.9713 15.0074 12.9593 14.9999 12.9458 14.9999C12.9323 14.9999 12.9203 15.0074 12.9068 15.0074C10.6696 14.9991 8.4323 14.2784 6.1643 12.8414C5.7143 12.5571 5.4458 12.0764 5.4458 11.5559Z" fill="url(#paint0_linear_147_11946)"/>
</g>
<defs>
<linearGradient id="paint0_linear_147_11946" x1="24.9458" y1="11.9997" x2="0.945801" y2="11.9997" gradientUnits="userSpaceOnUse">
<stop stop-color="#FE604D"/>
<stop offset="0.9999" stop-color="#FF9E04"/>
</linearGradient>
<clipPath id="clip0_147_11946">
<rect width="24" height="24" fill="white" transform="translate(0.945801)"/>
</clipPath>
</defs>
</svg>
